<svg width="16" height="15" viewBox="0 0 16 15" fill="none" xmlns="http://www.w3.org/2000/svg">
<path fill-rule="evenodd" clip-rule="evenodd" d="M2.5 7.1651C2.5 4.31254 4.82031 1.99609 7.6875 1.99609C10.5547 1.99609 12.875 4.31254 12.875 7.1651C12.875 10.0177 10.5547 12.3341 7.6875 12.3341C4.82031 12.3341 2.5 10.0177 2.5 7.1651ZM7.6875 0.496094C3.9963 0.496094 1 3.4797 1 7.1651C1 10.8505 3.9963 13.8341 7.6875 13.8341C11.3787 13.8341 14.375 10.8505 14.375 7.1651C14.375 3.4797 11.3787 0.496094 7.6875 0.496094ZM13.5295 11.9299C13.2362 11.6375 12.7613 11.6382 12.4689 11.9315C12.1764 12.2249 12.1772 12.6998 12.4705 12.9922L13.7205 14.2383C14.0139 14.5307 14.4887 14.53 14.7812 14.2367C15.0736 13.9433 15.0729 13.4684 14.7795 13.176L13.5295 11.9299Z" fill="white"/>
<path d="M12.4689 11.9315L12.6459 12.108L12.6459 12.108L12.4689 11.9315ZM13.5295 11.9299L13.353 12.1069L13.353 12.1069L13.5295 11.9299ZM12.4705 12.9922L12.647 12.8152L12.4705 12.9922ZM13.7205 14.2383L13.544 14.4154L13.7205 14.2383ZM14.7812 14.2367L14.9582 14.4132L14.7812 14.2367ZM14.7795 13.176L14.956 12.9989L14.7795 13.176ZM7.6875 1.74609C4.68295 1.74609 2.25 4.17377 2.25 7.1651H2.75C2.75 4.45131 4.95768 2.24609 7.6875 2.24609V1.74609ZM13.125 7.1651C13.125 4.17377 10.6921 1.74609 7.6875 1.74609V2.24609C10.4173 2.24609 12.625 4.45131 12.625 7.1651H13.125ZM7.6875 12.5841C10.6921 12.5841 13.125 10.1564 13.125 7.1651H12.625C12.625 9.87888 10.4173 12.0841 7.6875 12.0841V12.5841ZM2.25 7.1651C2.25 10.1564 4.68295 12.5841 7.6875 12.5841V12.0841C4.95768 12.0841 2.75 9.87888 2.75 7.1651H2.25ZM1.25 7.1651C1.25 3.61853 4.13361 0.746094 7.6875 0.746094V0.246094C3.85899 0.246094 0.75 3.34087 0.75 7.1651H1.25ZM7.6875 13.5841C4.13361 13.5841 1.25 10.7117 1.25 7.1651H0.75C0.75 10.9893 3.85899 14.0841 7.6875 14.0841V13.5841ZM14.125 7.1651C14.125 10.7117 11.2414 13.5841 7.6875 13.5841V14.0841C11.516 14.0841 14.625 10.9893 14.625 7.1651H14.125ZM7.6875 0.746094C11.2414 0.746094 14.125 3.61853 14.125 7.1651H14.625C14.625 3.34087 11.516 0.246094 7.6875 0.246094V0.746094ZM12.6459 12.108C12.8409 11.9125 13.1575 11.912 13.353 12.1069L13.706 11.7528C13.3149 11.3629 12.6817 11.3639 12.2918 11.755L12.6459 12.108ZM12.647 12.8152C12.4514 12.6202 12.451 12.3036 12.6459 12.108L12.2918 11.755C11.9019 12.1462 11.9029 12.7793 12.294 13.1693L12.647 12.8152ZM13.897 14.0613L12.647 12.8152L12.294 13.1693L13.544 14.4154L13.897 14.0613ZM14.6041 14.0602C14.4092 14.2557 14.0926 14.2562 13.897 14.0613L13.544 14.4154C13.9351 14.8053 14.5683 14.8043 14.9582 14.4132L14.6041 14.0602ZM14.603 13.353C14.7986 13.548 14.7991 13.8646 14.6041 14.0602L14.9582 14.4132C15.3481 14.022 15.3472 13.3889 14.956 12.9989L14.603 13.353ZM13.353 12.1069L14.603 13.353L14.956 12.9989L13.706 11.7528L13.353 12.1069Z" fill="white"/>
</svg>
