<svg width="17" height="16" viewBox="0 0 17 16" fill="none" xmlns="http://www.w3.org/2000/svg">
<path fill-rule="evenodd" clip-rule="evenodd" d="M2.875 8L8.44996 1.62862C8.6644 1.38355 8.49035 1 8.16471 1C8.05965 1 7.9593 1.04361 7.88762 1.12041L1.48363 7.98182C1.47772 7.98816 1.472 7.99459 1.46646 8.00111C1.20596 8.01836 1 8.23513 1 8.5C1 8.77614 1.22386 9 1.5 9H1.50048C1.50482 9.00466 1.50927 9.00927 1.51382 9.01382L7.89214 15.3921C7.9612 15.4612 8.05487 15.5 8.15254 15.5C8.47454 15.5 8.64147 15.1158 8.42176 14.8804L2.93334 9H15.5C15.7761 9 16 8.77614 16 8.5C16 8.22386 15.7761 8 15.5 8H2.875Z" fill="white"/>
<path d="M2.875 8L2.49871 7.67075L1.77311 8.5H2.875V8ZM8.44996 1.62862L8.82625 1.95787L8.82625 1.95787L8.44996 1.62862ZM7.88762 1.12041L7.52209 0.779251L7.52209 0.779251L7.88762 1.12041ZM1.48363 7.98182L1.84916 8.32299L1.84916 8.32298L1.48363 7.98182ZM1.46646 8.00111L1.4995 8.50001L1.7107 8.48603L1.84766 8.32466L1.46646 8.00111ZM1.50048 9L1.8663 8.65916L1.71801 8.5H1.50048V9ZM1.51382 9.01382L1.16025 9.36736L1.16027 9.36737L1.51382 9.01382ZM7.89214 15.3921L8.24569 15.0386L8.24569 15.0386L7.89214 15.3921ZM8.42176 14.8804L8.78729 14.5393L8.78729 14.5393L8.42176 14.8804ZM2.93334 9V8.5H1.78272L2.56781 9.34116L2.93334 9ZM3.25129 8.32925L8.82625 1.95787L8.07367 1.29937L2.49871 7.67075L3.25129 8.32925ZM8.82625 1.95787C9.32357 1.38951 8.91993 0.5 8.16471 0.5V1.5C8.06078 1.5 8.00523 1.37759 8.07367 1.29937L8.82625 1.95787ZM8.16471 0.5C7.92106 0.5 7.68834 0.601129 7.52209 0.779251L8.25314 1.46157C8.23027 1.48608 8.19824 1.5 8.16471 1.5V0.5ZM7.52209 0.779251L1.1181 7.64066L1.84916 8.32298L8.25315 1.46157L7.52209 0.779251ZM1.11811 7.64066C1.10683 7.65274 1.09588 7.66504 1.08526 7.67755L1.84766 8.32466C1.84811 8.32413 1.8486 8.32358 1.84916 8.32299L1.11811 7.64066ZM1.43342 7.5022C0.911932 7.53674 0.5 7.97006 0.5 8.5H1.5L1.4995 8.50001L1.43342 7.5022ZM0.5 8.5C0.5 9.05229 0.947716 9.5 1.5 9.5V8.5H1.5H0.5ZM1.5 9.5H1.50048V8.5H1.5V9.5ZM1.13466 9.34084C1.14304 9.34983 1.15157 9.35867 1.16025 9.36736L1.86739 8.66028C1.86697 8.65986 1.86661 8.65949 1.8663 8.65916L1.13466 9.34084ZM1.16027 9.36737L7.53859 15.7457L8.24569 15.0386L1.86738 8.66027L1.16027 9.36737ZM7.53858 15.7457C7.70142 15.9085 7.92226 16 8.15254 16V15C8.18748 15 8.22098 15.0139 8.24569 15.0386L7.53858 15.7457ZM8.15254 16C8.91174 16 9.3053 15.0943 8.78729 14.5393L8.05623 15.2216C7.97764 15.1374 8.03735 15 8.15254 15V16ZM8.78729 14.5393L3.29886 8.65884L2.56781 9.34116L8.05623 15.2216L8.78729 14.5393ZM2.93334 9.5H15.5V8.5H2.93334V9.5ZM15.5 9.5C16.0523 9.5 16.5 9.05229 16.5 8.5H15.5V9.5ZM16.5 8.5C16.5 7.94771 16.0523 7.5 15.5 7.5V8.5H16.5ZM15.5 7.5H2.875V8.5H15.5V7.5Z" fill="white"/>
</svg>
