<svg width="17" height="17" viewBox="0 0 17 17" fill="none" xmlns="http://www.w3.org/2000/svg">
<path fill-rule="evenodd" clip-rule="evenodd" d="M9 1.5C9 1.22386 8.77614 1 8.5 1C8.22386 1 8 1.22386 8 1.5V8H1.5C1.22386 8 1 8.22386 1 8.5C1 8.77614 1.22386 9 1.5 9H8V15.5C8 15.7761 8.22386 16 8.5 16C8.77614 16 9 15.7761 9 15.5V9H15.5C15.7761 9 16 8.77614 16 8.5C16 8.22386 15.7761 8 15.5 8H9V1.5Z" fill="white"/>
<path d="M8 8V8.5H8.5V8H8ZM8 9H8.5V8.5H8V9ZM9 9V8.5H8.5V9H9ZM9 8H8.5V8.5H9V8ZM8.5 1.5L8.5 1.5H9.5C9.5 0.947715 9.05229 0.5 8.5 0.5V1.5ZM8.5 1.5V1.5V0.5C7.94771 0.5 7.5 0.947716 7.5 1.5H8.5ZM8.5 8V1.5H7.5V8H8.5ZM1.5 8.5H8V7.5H1.5V8.5ZM1.5 8.5V7.5C0.947715 7.5 0.5 7.94771 0.5 8.5H1.5ZM1.5 8.5H1.5H0.5C0.5 9.05229 0.947716 9.5 1.5 9.5V8.5ZM8 8.5H1.5V9.5H8V8.5ZM8.5 15.5V9H7.5V15.5H8.5ZM8.5 15.5H8.5H7.5C7.5 16.0523 7.94771 16.5 8.5 16.5V15.5ZM8.5 15.5V16.5C9.05229 16.5 9.5 16.0523 9.5 15.5H8.5ZM8.5 9V15.5H9.5V9H8.5ZM15.5 8.5H9V9.5H15.5V8.5ZM15.5 8.5V9.5C16.0523 9.5 16.5 9.05229 16.5 8.5H15.5ZM15.5 8.5H16.5C16.5 7.94771 16.0523 7.5 15.5 7.5V8.5ZM9 8.5H15.5V7.5H9V8.5ZM8.5 1.5V8H9.5V1.5H8.5Z" fill="white"/>
</svg>
