<?xml version="1.0" encoding="utf-8"?>
<!-- Generator: Adobe Illustrator 18.0.0, SVG Export Plug-In . SVG Version: 6.00 Build 0)  -->
<!DOCTYPE svg PUBLIC "-//W3C//DTD SVG 1.1//EN" "http://www.w3.org/Graphics/SVG/1.1/DTD/svg11.dtd">
<svg version="1.1" id="Layer_1" xmlns="http://www.w3.org/2000/svg" xmlns:xlink="http://www.w3.org/1999/xlink" x="0px" y="0px"
	 viewBox="0 0 17 17" enable-background="new 0 0 17 17" xml:space="preserve">
<g>
	<path fill="#FFFFFF" d="M8.5,16c-2,0-3.9,0-5.9,0c-1,0-1.6-0.6-1.6-1.6c0-3.9,0-7.9,0-11.8C1,1.6,1.6,1,2.6,1c3.3,0,6.5,0,9.8,0
		c0.2,0,0.4,0.1,0.5,0.2c0.9,1,1.9,1.9,2.8,2.8C15.9,4.2,16,4.4,16,4.6c0,3.3,0,6.5,0,9.8c0,1-0.6,1.6-1.6,1.6
		C12.4,16,10.5,16,8.5,16z M3.5,15c0-0.1,0-0.1,0-0.2c0-1.1,0-2.2,0-3.2c0-0.9,0.6-1.6,1.6-1.6c2.3,0,4.6,0,6.8,0
		c0.9,0,1.6,0.6,1.6,1.6c0,1.1,0,2.2,0,3.3c0,0.1,0,0.1,0,0.2c0.3,0,0.7,0,1,0s0.5-0.2,0.5-0.5c0-3.2,0-6.4,0-9.7
		c0-0.1,0-0.1-0.1-0.2c-0.9-0.9-1.7-1.7-2.6-2.6c0,0-0.1-0.1-0.1-0.1c-0.2,0-0.5,0-0.8,0c0,0.1,0,0.1,0,0.2c0,0.9,0,1.8,0,2.7
		c0,0.7-0.4,1.1-1.1,1.1C9.1,6,7.9,6,6.6,6C5.9,6,5.5,5.6,5.5,4.9c0-0.9,0-1.8,0-2.7c0-0.1,0-0.1,0-0.2C5.4,2,5.4,2,5.3,2
		C4.4,2,3.5,2,2.6,2C2.2,2,2,2.2,2,2.6c0,3.9,0,7.8,0,11.7c0,0.1,0,0.1,0,0.2C2,14.8,2.2,15,2.5,15C2.8,15,3.1,15,3.5,15z M4.5,15
		c2.7,0,5.3,0,8,0c0-0.1,0-0.1,0-0.1c0-1.1,0-2.2,0-3.3c0-0.4-0.2-0.6-0.6-0.6c-2.3,0-4.6,0-6.9,0c-0.4,0-0.6,0.2-0.6,0.6
		c0,1.1,0,2.2,0,3.3C4.5,14.9,4.5,14.9,4.5,15z M6.5,5c1.3,0,2.7,0,4,0c0-1,0-2,0-3c-1.3,0-2.7,0-4,0C6.5,3,6.5,4,6.5,5z"/>
	<path fill="#FFFFFF" d="M14.4,16.5H2.6c-1.3,0-2.1-0.8-2.1-2.1V2.6c0-1.3,0.8-2.1,2.1-2.1c3.3,0,6.5,0,9.8,0c0.4,0,0.6,0.1,0.9,0.4
		c0.9,1,1.9,1.9,2.8,2.8c0.2,0.2,0.4,0.5,0.4,0.9c0,3.3,0,6.5,0,9.8C16.5,15.6,15.6,16.5,14.4,16.5z M4,15.5l9,0L4,15.5V15
		c0-0.1,0-0.1,0-0.2l0-3.2c0-0.6,0.4-1.1,1.1-1.1h6.9c0.5,0,0.9,0.3,1,0.8c-0.1-0.5-0.5-0.8-1-0.8H5.1c-0.7,0-1.1,0.4-1.1,1.1V15.5z
		 M2.5,2.5c0,0,0,0.1,0,0.1v11.9l0.5,0v-2.9c0-1.2,0.9-2.1,2.1-2.1h6.8c1.2,0,2.1,0.9,2.1,2.1v2.9l0.2,0l0.3,0c0-3.2,0-6.4,0-9.6
		c-0.8-0.8-1.6-1.6-2.4-2.4c0,0-0.1,0-0.1,0v2.4c0,1-0.6,1.6-1.6,1.6H6.6C5.6,6.5,5,5.9,5,4.9V2.5H2.6C2.6,2.5,2.5,2.5,2.5,2.5z
		 M5,14.5h7v-2.9l-6.9-0.1c-0.1,0-0.1,0-0.1,0L5,14.5z M12.4,1.5c-3.3,0-6.5,0-9.8,0c-0.7,0-1.1,0.4-1.1,1.1v11.8c0,0,0,0,0,0l0,0
		V2.6c0-0.7,0.4-1.1,1.1-1.1H6v3.4C6,5,6,5,6,5.1V1.5h5v3.5c0,0,0-0.1,0-0.1V1.5h0.5c0.3,0,0.5,0,0.8,0l0,0c0.1,0,0.3,0,0.5,0.2
		c0.2,0.2,0.4,0.4,0.5,0.5C13,2,12.8,1.8,12.6,1.6C12.5,1.5,12.5,1.5,12.4,1.5z M14.9,3.9C15,4,15.2,4.2,15.3,4.3
		c0.1,0.1,0.2,0.3,0.2,0.5c0,0.6,0,1.3,0,1.9c0-0.7,0-1.4,0-2.1c0-0.1,0-0.1-0.1-0.2C15.2,4.2,15.1,4.1,14.9,3.9z M6.4,5.5
		c0.1,0,0.1,0,0.2,0h3.8c0.1,0,0.1,0,0.2,0H6.4z M7,4.5h3v-2H7V4.5z"/>
</g>
</svg>
